# xmcd
#
# Track frame offsets:
#	150
#	13751
#	27760
#	43347
#	58191
#	71949
#	89295
#	103382
#
# Disc length: 1613 seconds
#
# Revision: 0
# Processed by: cddbd v1.5.2PL0 Copyright (c) Steve Scherf et al.
# Submitted via: dBpowerAMP V4.0
#
DISCID=73064b08
DTITLE=Various Artist - Highway Junkie
DYEAR=2011
DGENRE=Country
TTITLE0=Growin' Up Is Gettin' Old
TTITLE1=Let Love Do Its Thing
TTITLE2=Highway Junkie
TTITLE3=Chancy Williams and The Younger Bros Band - I know How To Love
TTITLE4=Anyway
TTITLE5=Baby I'm Gone
TTITLE6=Let Love Do Its Thing (Single Vocal)
TTITLE7=Baby I'm Gone (Acoustic)
EXTD=
EXTT0=
EXTT1=
EXTT2=
EXTT3=
EXTT4=
EXTT5=
EXTT6=
EXTT7=
PLAYORDER=
